<svg xmlns="http://www.w3.org/2000/svg" width="945" height="531" viewBox="0 0 945 531">
  <rect width="100%" height="100%" fill="white"/>
  
  <!-- Título principal -->
  <text x="472" y="45" text-anchor="middle" font-family="Comic Sans MS, cursive" font-size="32" font-weight="bold" fill="#2c3e50">Planteamiento del problema</text>
  
  <!-- Sección 1: Contexto - Gris azulado -->
  <g transform="translate(30, 70)">
    <!-- Caja 3D -->
    <polygon points="0,25 0,75 150,75 150,25" fill="#5d6d7e"/>
    <polygon points="0,25 20,10 170,10 150,25" fill="#85929e"/>
    <polygon points="150,25 170,10 170,60 150,75" fill="#34495e"/>
    <text x="75" y="55" text-anchor="middle" font-family="Comic Sans MS, cursive" font-size="14" font-weight="bold" fill="white">Contexto</text>
    
    <!-- Contenido -->
    <rect x="190" y="5" width="700" height="70" rx="8" fill="#f8f9fa" stroke="#5d6d7e" stroke-width="2"/>
    <circle cx="210" cy="40" r="12" fill="#5d6d7e"/>
    <text x="210" y="45" text-anchor="middle" font-family="Arial" font-size="14" font-weight="bold" fill="white">🎓</text>
    <text x="235" y="35" font-family="Comic Sans MS, cursive" font-size="13" fill="#2c3e50">El LNB-ESPOL forma estudiantes en bioinstrumentación</text>
    <text x="235" y="55" font-family="Comic Sans MS, cursive" font-size="13" fill="#2c3e50">y procesamiento de señales fisiológicas.</text>
  </g>
  
  <!-- Sección 2: Limitaciones actuales - Rojo oscuro -->
  <g transform="translate(30, 165)">
    <!-- Caja 3D -->
    <polygon points="0,25 0,85 150,85 150,25" fill="#922b21"/>
    <polygon points="0,25 20,10 170,10 150,25" fill="#c0392b"/>
    <polygon points="150,25 170,10 170,70 150,85" fill="#641e16"/>
    <text x="75" y="50" text-anchor="middle" font-family="Comic Sans MS, cursive" font-size="12" font-weight="bold" fill="white">Limitaciones</text>
    <text x="75" y="68" text-anchor="middle" font-family="Comic Sans MS, cursive" font-size="12" font-weight="bold" fill="white">actuales</text>
    
    <!-- Contenido -->
    <rect x="190" y="0" width="700" height="90" rx="8" fill="#fdedec" stroke="#922b21" stroke-width="2"/>
    <circle cx="210" cy="30" r="10" fill="#e74c3c"/>
    <text x="210" y="35" text-anchor="middle" font-family="Arial" font-size="12" fill="white">📊</text>
    <text x="230" y="35" font-family="Comic Sans MS, cursive" font-size="13" fill="#2c3e50">Bases de datos: Escenarios fijos, sin interacción en tiempo real.</text>
    
    <circle cx="210" cy="60" r="10" fill="#c0392b"/>
    <text x="210" y="65" text-anchor="middle" font-family="Arial" font-size="12" fill="white">👤</text>
    <text x="230" y="65" font-family="Comic Sans MS, cursive" font-size="13" fill="#2c3e50">Sujetos reales: Restricciones éticas, baja reproducibilidad.</text>
  </g>
  
  <!-- Sección 3: Problema central - Rojo -->
  <g transform="translate(30, 280)">
    <!-- Caja 3D -->
    <polygon points="0,25 0,105 150,105 150,25" fill="#c0392b"/>
    <polygon points="0,25 20,10 170,10 150,25" fill="#e74c3c"/>
    <polygon points="150,25 170,10 170,90 150,105" fill="#922b21"/>
    <text x="75" y="55" text-anchor="middle" font-family="Comic Sans MS, cursive" font-size="12" font-weight="bold" fill="white">Problema</text>
    <text x="75" y="73" text-anchor="middle" font-family="Comic Sans MS, cursive" font-size="12" font-weight="bold" fill="white">central</text>
    
    <!-- Contenido -->
    <rect x="190" y="0" width="700" height="115" rx="8" fill="#fdf2f2" stroke="#c0392b" stroke-width="2"/>
    <text x="210" y="25" font-family="Comic Sans MS, cursive" font-size="14" font-weight="bold" fill="#c0392b">⚠️ Los estudiantes necesitan:</text>
    <text x="220" y="48" font-family="Comic Sans MS, cursive" font-size="12" fill="#2c3e50">• Comprender cómo se comportan las señales fisiológicas de forma dinámica.</text>
    <text x="220" y="66" font-family="Comic Sans MS, cursive" font-size="12" fill="#2c3e50">• Observar y comparar casos normales vs patologías.</text>
    <text x="220" y="84" font-family="Comic Sans MS, cursive" font-size="12" fill="#2c3e50">• Visualizar y reconocer en tiempo real variables de interés.</text>
    <text x="220" y="102" font-family="Comic Sans MS, cursive" font-size="12" fill="#2c3e50">• Experimentar modificando parámetros y viendo el efecto en la señal.</text>
  </g>
  
  <!-- Sección 4: Se requiere - Verde -->
  <g transform="translate(30, 420)">
    <!-- Caja 3D -->
    <polygon points="0,25 0,75 150,75 150,25" fill="#1e8449"/>
    <polygon points="0,25 20,10 170,10 150,25" fill="#27ae60"/>
    <polygon points="150,25 170,10 170,60 150,75" fill="#145a32"/>
    <text x="75" y="55" text-anchor="middle" font-family="Comic Sans MS, cursive" font-size="14" font-weight="bold" fill="white">Se requiere</text>
    
    <!-- Contenido -->
    <rect x="190" y="5" width="700" height="70" rx="8" fill="#eafaf1" stroke="#1e8449" stroke-width="2"/>
    <text x="210" y="30" font-family="Comic Sans MS, cursive" font-size="14" font-weight="bold" fill="#1e8449">✓ Solución:</text>
    <text x="210" y="52" font-family="Comic Sans MS, cursive" font-size="12" fill="#2c3e50">Dispositivo educativo que simule condiciones normales y patológicas de ECG, EMG y PPG</text>
    <text x="210" y="68" font-family="Comic Sans MS, cursive" font-size="12" fill="#2c3e50">que permita visualizar y parametrizar las señales sin restricciones logísticas ni éticas.</text>
  </g>
  
  <!-- Footer -->
  <text x="472" y="520" text-anchor="middle" font-family="Comic Sans MS, cursive" font-size="11" fill="#95a5a6">BioSimulator Pro – Planteamiento del Problema</text>
</svg>
