<svg xmlns="http://www.w3.org/2000/svg" width="945" height="531" viewBox="0 0 945 531">
  <!-- 25cm x 14cm @ 96 DPI -->
  <rect width="100%" height="100%" fill="white"/>
  
  <!-- ECG Section -->
  <g transform="translate(40, 30)">
    <text x="0" y="30" font-family="Comic Sans MS, cursive" font-size="28" font-weight="bold" fill="#2980b9">ECG – Modelo dinámico</text>
    <text x="0" y="55" font-family="Comic Sans MS, cursive" font-size="14" fill="#555">McSharry 2003</text>
    
    <text x="0" y="80" font-family="Comic Sans MS, cursive" font-size="13" fill="#222">• Sistema de ecuaciones diferenciales (RK4)</text>
    <text x="0" y="98" font-family="Comic Sans MS, cursive" font-size="13" fill="#222">• Morfología PQRST paramétrica</text>
    <text x="0" y="116" font-family="Comic Sans MS, cursive" font-size="13" fill="#222">• Variabilidad latido a latido (HRV)</text>
    <text x="0" y="134" font-family="Comic Sans MS, cursive" font-size="13" fill="#222">• 8 condiciones: normal, taquicardia, bradicardia,</text>
    <text x="12" y="150" font-family="Comic Sans MS, cursive" font-size="13" fill="#222">FA, FV, bloqueos AV, elevación/depresión ST</text>
    
    <!-- ECG Waveform -->
    <g transform="translate(480, 20)">
      <path d="M0,70 L30,70 L35,68 L40,72 L50,70 
               L70,70 L75,65 L80,70 
               L95,70 L100,75 L105,20 L110,90 L115,55 L120,70 
               L140,70 L145,60 L160,55 L175,65 L180,70 
               L200,70 L230,70 L235,68 L240,72 L250,70
               L270,70 L275,65 L280,70
               L295,70 L300,75 L305,20 L310,90 L315,55 L320,70
               L340,70 L345,60 L360,55 L375,65 L380,70 L400,70" 
            stroke="#e74c3c" stroke-width="2.5" fill="none"/>
    </g>
  </g>
  
  <!-- Línea separadora -->
  <line x1="40" y1="195" x2="905" y2="195" stroke="#e0e0e0" stroke-width="1"/>
  
  <!-- EMG Section -->
  <g transform="translate(40, 210)">
    <text x="0" y="30" font-family="Comic Sans MS, cursive" font-size="28" font-weight="bold" fill="#2980b9">EMG – Modelo estocástico</text>
    <text x="0" y="55" font-family="Comic Sans MS, cursive" font-size="14" fill="#555">Fuglevand 1993</text>
    
    <text x="0" y="80" font-family="Comic Sans MS, cursive" font-size="13" fill="#222">• Reclutamiento de unidades motoras (Henneman)</text>
    <text x="0" y="98" font-family="Comic Sans MS, cursive" font-size="13" fill="#222">• Variabilidad estocástica en disparo de MUAPs</text>
    <text x="0" y="116" font-family="Comic Sans MS, cursive" font-size="13" fill="#222">• Señal bipolar con envolvente RMS</text>
    <text x="0" y="134" font-family="Comic Sans MS, cursive" font-size="13" fill="#222">• 6 condiciones: reposo, contracción baja/media/alta,</text>
    <text x="12" y="150" font-family="Comic Sans MS, cursive" font-size="13" fill="#222">temblor patológico, fatiga muscular progresiva</text>
    
    <!-- EMG Waveform -->
    <g transform="translate(480, 20)">
      <path d="M0,70 L5,65 L10,78 L15,60 L20,82 L25,55 L30,85 L35,50 L40,88 L45,45 L50,90 
               L55,42 L60,92 L65,38 L70,95 L75,35 L80,98 L85,32 L90,100 L95,30 L100,102 
               L105,28 L110,105 L115,25 L120,108 L125,22 L130,110 L135,20 L140,112 
               L145,18 L150,115 L155,15 L160,118 L165,12 L170,120 L175,10 L180,122 
               L185,8 L190,125 L195,5 L200,128 L205,3 L210,130 L215,0 L220,132 
               L225,2 L230,130 L235,5 L240,127 L245,8 L250,124 L255,12 L260,120 
               L265,15 L270,116 L275,20 L280,112 L285,25 L290,108 L295,30 L300,104 
               L305,35 L310,100 L315,40 L320,95 L325,45 L330,90 L335,50 L340,85 
               L345,55 L350,80 L355,60 L360,75 L365,65 L370,72 L375,68 L380,70 L400,70" 
            stroke="#27ae60" stroke-width="1.8" fill="none"/>
    </g>
  </g>
  
  <!-- Línea separadora -->
  <line x1="40" y1="375" x2="905" y2="375" stroke="#e0e0e0" stroke-width="1"/>
  
  <!-- PPG Section -->
  <g transform="translate(40, 390)">
    <text x="0" y="30" font-family="Comic Sans MS, cursive" font-size="28" font-weight="bold" fill="#2980b9">PPG – Modelo determinista</text>
    <text x="0" y="55" font-family="Comic Sans MS, cursive" font-size="14" fill="#555">Allen 2007</text>
    
    <text x="0" y="80" font-family="Comic Sans MS, cursive" font-size="13" fill="#222">• Superposición de gaussianas (sistólica + diastólica)</text>
    <text x="0" y="98" font-family="Comic Sans MS, cursive" font-size="13" fill="#222">• Muesca dicrótica configurable por condición</text>
    <text x="0" y="116" font-family="Comic Sans MS, cursive" font-size="13" fill="#222">• Índice de perfusión (PI) dinámico con variabilidad</text>
    <text x="0" y="134" font-family="Comic Sans MS, cursive" font-size="13" fill="#222">• 6 condiciones: normal, arritmia, perfusión débil,</text>
    <text x="12" y="150" font-family="Comic Sans MS, cursive" font-size="13" fill="#222">perfusión fuerte, vasoconstricción</text>
    
    <!-- PPG Waveform -->
    <g transform="translate(480, 15)">
      <!-- Primer pulso -->
      <path d="M0,110 
               Q20,110 35,105 
               Q50,80 60,30 
               Q65,15 70,20 
               Q75,35 80,50 
               Q85,55 90,52 
               Q95,48 100,55 
               Q110,75 130,100 
               Q150,108 170,110
               Q190,110 205,105 
               Q220,80 230,30 
               Q235,15 240,20 
               Q245,35 250,50 
               Q255,55 260,52 
               Q265,48 270,55 
               Q280,75 300,100 
               Q320,108 340,110
               L400,110" 
            stroke="#9b59b6" stroke-width="2.5" fill="none"/>
      
      <!-- Etiquetas de la onda -->
      <text x="55" y="5" font-family="Comic Sans MS, cursive" font-size="9" fill="#555">Sistólico</text>
      <text x="100" y="68" font-family="Comic Sans MS, cursive" font-size="9" fill="#555">Dicrótico</text>
    </g>
  </g>
  
  <!-- Footer -->
  <text x="472" y="520" text-anchor="middle" font-family="Comic Sans MS, cursive" font-size="11" fill="#777">BioSimulator Pro v1.0.0 – Modelos de Generación de Señales Fisiológicas</text>
</svg>
