<?xml version="1.0" encoding="UTF-8"?>
<svg xmlns="http://www.w3.org/2000/svg" viewBox="0 0 1200 900" width="1200" height="900">
  <defs>
    <marker id="arrow" markerWidth="8" markerHeight="6" refX="7" refY="3" orient="auto">
      <polygon points="0 0, 8 3, 0 6" fill="#555"/>
    </marker>
    <marker id="arrowBlue" markerWidth="8" markerHeight="6" refX="7" refY="3" orient="auto">
      <polygon points="0 0, 8 3, 0 6" fill="#1976d2"/>
    </marker>
    <marker id="arrowGreen" markerWidth="8" markerHeight="6" refX="7" refY="3" orient="auto">
      <polygon points="0 0, 8 3, 0 6" fill="#2e7d32"/>
    </marker>
    <marker id="arrowOrange" markerWidth="8" markerHeight="6" refX="7" refY="3" orient="auto">
      <polygon points="0 0, 8 3, 0 6" fill="#e65100"/>
    </marker>
  </defs>
  
  <!-- Fondo -->
  <rect width="1200" height="900" fill="#ffffff"/>
  
  <!-- Título -->
  <text x="600" y="28" font-family="Arial, sans-serif" font-size="16" font-weight="bold" fill="#333" text-anchor="middle" font-style="italic">
    Diagrama de Navegación — Interfaz Nextion NX8048T070 (7" 800×480)
  </text>
  <text x="600" y="48" font-family="Arial, sans-serif" font-size="10" fill="#666" text-anchor="middle">
    11 Páginas | 3 Flujos Principales | Arquitectura Evento-Callback
  </text>
  
  <!-- ══════════════════════════════════════════════════════════════════════ -->
  <!-- PÁGINA 0: PORTADA -->
  <!-- ══════════════════════════════════════════════════════════════════════ -->
  
  <rect x="50" y="80" width="180" height="100" rx="8" fill="#1a1a2e" stroke="#3498db" stroke-width="2"/>
  <text x="140" y="105" font-family="Arial, sans-serif" font-size="11" fill="#3498db" text-anchor="middle" font-weight="bold">Página 0: PORTADA</text>
  <text x="140" y="125" font-family="Arial, sans-serif" font-size="9" fill="#7f8c8d" text-anchor="middle">Splash Screen</text>
  <rect x="85" y="140" width="110" height="25" rx="4" fill="#27ae60" stroke="#1e8449" stroke-width="1"/>
  <text x="140" y="157" font-family="Arial, sans-serif" font-size="9" fill="white" text-anchor="middle" font-weight="bold">bt_comenzar</text>
  
  <!-- Flecha Portada → Menú -->
  <line x1="230" y1="130" x2="330" y2="130" stroke="#27ae60" stroke-width="2" marker-end="url(#arrowGreen)"/>
  <text x="280" y="120" font-family="Arial, sans-serif" font-size="8" fill="#27ae60" text-anchor="middle">BUTTON_COMENZAR</text>
  
  <!-- ══════════════════════════════════════════════════════════════════════ -->
  <!-- PÁGINA 1: MENÚ PRINCIPAL -->
  <!-- ══════════════════════════════════════════════════════════════════════ -->
  
  <rect x="340" y="70" width="240" height="140" rx="8" fill="#1a1a2e" stroke="#e74c3c" stroke-width="2"/>
  <text x="460" y="95" font-family="Arial, sans-serif" font-size="11" fill="#e74c3c" text-anchor="middle" font-weight="bold">Página 1: MENU</text>
  <text x="460" y="112" font-family="Arial, sans-serif" font-size="9" fill="#7f8c8d" text-anchor="middle">Selección de Tipo de Señal</text>
  
  <!-- Botones del menú -->
  <rect x="355" y="125" width="65" height="30" rx="4" fill="#2ecc71" stroke="#27ae60" stroke-width="1"/>
  <text x="387" y="145" font-family="Arial, sans-serif" font-size="9" fill="white" text-anchor="middle" font-weight="bold">ECG</text>
  
  <rect x="427" y="125" width="65" height="30" rx="4" fill="#e67e22" stroke="#d35400" stroke-width="1"/>
  <text x="460" y="145" font-family="Arial, sans-serif" font-size="9" fill="white" text-anchor="middle" font-weight="bold">EMG</text>
  
  <rect x="500" y="125" width="65" height="30" rx="4" fill="#3498db" stroke="#2980b9" stroke-width="1"/>
  <text x="532" y="145" font-family="Arial, sans-serif" font-size="9" fill="white" text-anchor="middle" font-weight="bold">PPG</text>
  
  <rect x="400" y="165" width="120" height="25" rx="4" fill="#9b59b6" stroke="#8e44ad" stroke-width="1"/>
  <text x="460" y="182" font-family="Arial, sans-serif" font-size="9" fill="white" text-anchor="middle" font-weight="bold">bt_ir →</text>
  
  <!-- ══════════════════════════════════════════════════════════════════════ -->
  <!-- PÁGINAS 2-4: SELECCIÓN DE CONDICIÓN -->
  <!-- ══════════════════════════════════════════════════════════════════════ -->
  
  <!-- Flechas Menú → Condiciones -->
  <line x1="387" y1="210" x2="387" y2="260" stroke="#2ecc71" stroke-width="1.5" stroke-dasharray="4,2"/>
  <line x1="460" y1="210" x2="460" y2="260" stroke="#e67e22" stroke-width="1.5" stroke-dasharray="4,2"/>
  <line x1="532" y1="210" x2="532" y2="260" stroke="#3498db" stroke-width="1.5" stroke-dasharray="4,2"/>
  
  <!-- PÁGINA 2: ECG_SIM -->
  <rect x="50" y="270" width="280" height="160" rx="8" fill="#e8f5e9" stroke="#2e7d32" stroke-width="2"/>
  <text x="190" y="295" font-family="Arial, sans-serif" font-size="11" fill="#2e7d32" text-anchor="middle" font-weight="bold">Página 2: ECG_SIM</text>
  <text x="190" y="312" font-family="Arial, sans-serif" font-size="9" fill="#666" text-anchor="middle">8 Condiciones Clínicas ECG</text>
  
  <!-- Grid de botones ECG -->
  <g font-family="Arial, sans-serif" font-size="7" fill="#333">
    <rect x="60" y="325" width="60" height="22" rx="3" fill="#c8e6c9" stroke="#81c784"/>
    <text x="90" y="340" text-anchor="middle">Normal</text>
    <rect x="125" y="325" width="60" height="22" rx="3" fill="#fff" stroke="#81c784"/>
    <text x="155" y="340" text-anchor="middle">Taquicardia</text>
    <rect x="190" y="325" width="60" height="22" rx="3" fill="#fff" stroke="#81c784"/>
    <text x="220" y="340" text-anchor="middle">Bradicardia</text>
    <rect x="255" y="325" width="60" height="22" rx="3" fill="#fff" stroke="#81c784"/>
    <text x="285" y="340" text-anchor="middle">Bloqueo AV</text>
    
    <rect x="60" y="352" width="60" height="22" rx="3" fill="#fff" stroke="#81c784"/>
    <text x="90" y="367" text-anchor="middle">FA</text>
    <rect x="125" y="352" width="60" height="22" rx="3" fill="#fff" stroke="#81c784"/>
    <text x="155" y="367" text-anchor="middle">FV</text>
    <rect x="190" y="352" width="60" height="22" rx="3" fill="#fff" stroke="#81c784"/>
    <text x="220" y="367" text-anchor="middle">STEMI</text>
    <rect x="255" y="352" width="60" height="22" rx="3" fill="#fff" stroke="#81c784"/>
    <text x="285" y="367" text-anchor="middle">Isquemia</text>
  </g>
  
  <rect x="60" y="385" width="80" height="25" rx="4" fill="#757575"/>
  <text x="100" y="402" font-family="Arial, sans-serif" font-size="8" fill="white" text-anchor="middle">← Atrás</text>
  <rect x="230" y="385" width="85" height="25" rx="4" fill="#2e7d32"/>
  <text x="272" y="402" font-family="Arial, sans-serif" font-size="8" fill="white" text-anchor="middle">Ir →</text>
  
  <!-- PÁGINA 3: EMG_SIM -->
  <rect x="350" y="270" width="220" height="160" rx="8" fill="#fff3e0" stroke="#e65100" stroke-width="2"/>
  <text x="460" y="295" font-family="Arial, sans-serif" font-size="11" fill="#e65100" text-anchor="middle" font-weight="bold">Página 3: EMG_SIM</text>
  <text x="460" y="312" font-family="Arial, sans-serif" font-size="9" fill="#666" text-anchor="middle">6 Condiciones Musculares</text>
  
  <g font-family="Arial, sans-serif" font-size="7" fill="#333">
    <rect x="360" y="325" width="60" height="22" rx="3" fill="#ffe0b2" stroke="#ffb74d"/>
    <text x="390" y="340" text-anchor="middle">Reposo</text>
    <rect x="425" y="325" width="60" height="22" rx="3" fill="#fff" stroke="#ffb74d"/>
    <text x="455" y="340" text-anchor="middle">Leve</text>
    <rect x="490" y="325" width="60" height="22" rx="3" fill="#fff" stroke="#ffb74d"/>
    <text x="520" y="340" text-anchor="middle">Moderada</text>
    
    <rect x="360" y="352" width="60" height="22" rx="3" fill="#fff" stroke="#ffb74d"/>
    <text x="390" y="367" text-anchor="middle">Máxima</text>
    <rect x="425" y="352" width="60" height="22" rx="3" fill="#fff" stroke="#ffb74d"/>
    <text x="455" y="367" text-anchor="middle">Temblor</text>
    <rect x="490" y="352" width="60" height="22" rx="3" fill="#fff" stroke="#ffb74d"/>
    <text x="520" y="367" text-anchor="middle">Fatiga</text>
  </g>
  
  <rect x="360" y="385" width="80" height="25" rx="4" fill="#757575"/>
  <text x="400" y="402" font-family="Arial, sans-serif" font-size="8" fill="white" text-anchor="middle">← Atrás</text>
  <rect x="480" y="385" width="85" height="25" rx="4" fill="#e65100"/>
  <text x="522" y="402" font-family="Arial, sans-serif" font-size="8" fill="white" text-anchor="middle">Ir →</text>
  
  <!-- PÁGINA 4: PPG_SIM -->
  <rect x="590" y="270" width="220" height="160" rx="8" fill="#e3f2fd" stroke="#1565c0" stroke-width="2"/>
  <text x="700" y="295" font-family="Arial, sans-serif" font-size="11" fill="#1565c0" text-anchor="middle" font-weight="bold">Página 4: PPG_SIM</text>
  <text x="700" y="312" font-family="Arial, sans-serif" font-size="9" fill="#666" text-anchor="middle">6 Condiciones Circulatorias</text>
  
  <g font-family="Arial, sans-serif" font-size="7" fill="#333">
    <rect x="600" y="325" width="60" height="22" rx="3" fill="#bbdefb" stroke="#64b5f6"/>
    <text x="630" y="340" text-anchor="middle">Normal</text>
    <rect x="665" y="325" width="60" height="22" rx="3" fill="#fff" stroke="#64b5f6"/>
    <text x="695" y="340" text-anchor="middle">Arritmia</text>
    <rect x="730" y="325" width="60" height="22" rx="3" fill="#fff" stroke="#64b5f6"/>
    <text x="760" y="340" text-anchor="middle">Perf.Débil</text>
    
    <rect x="600" y="352" width="60" height="22" rx="3" fill="#fff" stroke="#64b5f6"/>
    <text x="630" y="367" text-anchor="middle">Vasoconstr</text>
    <rect x="665" y="352" width="60" height="22" rx="3" fill="#fff" stroke="#64b5f6"/>
    <text x="695" y="367" text-anchor="middle">Perf.Fuerte</text>
    <rect x="730" y="352" width="60" height="22" rx="3" fill="#fff" stroke="#64b5f6"/>
    <text x="760" y="367" text-anchor="middle">Vasodilat</text>
  </g>
  
  <rect x="600" y="385" width="80" height="25" rx="4" fill="#757575"/>
  <text x="640" y="402" font-family="Arial, sans-serif" font-size="8" fill="white" text-anchor="middle">← Atrás</text>
  <rect x="720" y="385" width="85" height="25" rx="4" fill="#1565c0"/>
  <text x="762" y="402" font-family="Arial, sans-serif" font-size="8" fill="white" text-anchor="middle">Ir →</text>
  
  <!-- ══════════════════════════════════════════════════════════════════════ -->
  <!-- PÁGINAS 5,7,9: WAVEFORM (SIMULACIÓN ACTIVA) -->
  <!-- ══════════════════════════════════════════════════════════════════════ -->
  
  <!-- Flechas condición → waveform -->
  <line x1="190" y1="430" x2="190" y2="480" stroke="#2e7d32" stroke-width="2" marker-end="url(#arrowGreen)"/>
  <line x1="460" y1="430" x2="460" y2="480" stroke="#e65100" stroke-width="2" marker-end="url(#arrowOrange)"/>
  <line x1="700" y1="430" x2="700" y2="480" stroke="#1565c0" stroke-width="2" marker-end="url(#arrowBlue)"/>
  
  <text x="190" y="455" font-family="Arial, sans-serif" font-size="8" fill="#2e7d32" text-anchor="middle">BUTTON_IR</text>
  <text x="460" y="455" font-family="Arial, sans-serif" font-size="8" fill="#e65100" text-anchor="middle">BUTTON_IR</text>
  <text x="700" y="455" font-family="Arial, sans-serif" font-size="8" fill="#1565c0" text-anchor="middle">BUTTON_IR</text>
  
  <!-- PÁGINA 5: WAVEFORM_ECG -->
  <rect x="50" y="490" width="280" height="200" rx="8" fill="#1a1a2e" stroke="#2ecc71" stroke-width="2"/>
  <text x="190" y="515" font-family="Arial, sans-serif" font-size="11" fill="#2ecc71" text-anchor="middle" font-weight="bold">Página 5: WAVEFORM_ECG</text>
  
  <!-- Waveform area -->
  <rect x="60" y="525" width="200" height="80" rx="3" fill="#0d1117" stroke="#2ecc71" stroke-width="1"/>
  <polyline points="65,565 80,565 90,560 100,565 110,565 115,555 120,575 125,540 130,590 135,555 140,565 160,565 180,565 190,560 200,565 210,565 215,555 220,575 225,540 230,590 235,555 240,565 250,565" 
        fill="none" stroke="#2ecc71" stroke-width="1.5"/>
  
  <!-- Métricas -->
  <g font-family="Arial, sans-serif" font-size="8" fill="#7f8c8d">
    <text x="270" y="545">HR: <tspan fill="#2ecc71" font-weight="bold">72</tspan> bpm</text>
    <text x="270" y="560">RR: <tspan fill="#2ecc71">833</tspan> ms</text>
    <text x="270" y="575">QRS: <tspan fill="#2ecc71">0.85</tspan> mV</text>
    <text x="270" y="590">ST: <tspan fill="#2ecc71">0.00</tspan> mV</text>
  </g>
  
  <!-- Botones control -->
  <rect x="60" y="615" width="50" height="25" rx="4" fill="#27ae60"/>
  <text x="85" y="632" font-family="Arial, sans-serif" font-size="8" fill="white" text-anchor="middle">▶ Start</text>
  <rect x="115" y="615" width="50" height="25" rx="4" fill="#f39c12"/>
  <text x="140" y="632" font-family="Arial, sans-serif" font-size="8" fill="white" text-anchor="middle">⏸ Pause</text>
  <rect x="170" y="615" width="50" height="25" rx="4" fill="#e74c3c"/>
  <text x="195" y="632" font-family="Arial, sans-serif" font-size="8" fill="white" text-anchor="middle">⏹ Stop</text>
  <rect x="225" y="615" width="50" height="25" rx="4" fill="#3498db"/>
  <text x="250" y="632" font-family="Arial, sans-serif" font-size="8" fill="white" text-anchor="middle">⚙ Param</text>
  
  <rect x="60" y="650" width="80" height="25" rx="4" fill="#757575"/>
  <text x="100" y="667" font-family="Arial, sans-serif" font-size="8" fill="white" text-anchor="middle">← Atrás</text>
  
  <!-- PÁGINA 7: WAVEFORM_EMG -->
  <rect x="350" y="490" width="220" height="200" rx="8" fill="#1a1a2e" stroke="#e67e22" stroke-width="2"/>
  <text x="460" y="515" font-family="Arial, sans-serif" font-size="11" fill="#e67e22" text-anchor="middle" font-weight="bold">Página 7: WAVEFORM_EMG</text>
  
  <rect x="360" y="525" width="140" height="80" rx="3" fill="#0d1117" stroke="#e67e22" stroke-width="1"/>
  <!-- EMG noise pattern -->
  <polyline points="365,565 370,560 375,570 380,555 385,575 390,558 395,572 400,560 405,568 410,555 415,575 420,558 425,572 430,560 435,568 440,555 445,575 450,558 455,572 460,560 465,568 470,555 475,575 480,558 485,572 490,560 495,565" 
        fill="none" stroke="#e67e22" stroke-width="1"/>
  
  <g font-family="Arial, sans-serif" font-size="8" fill="#7f8c8d">
    <text x="510" y="545">RMS: <tspan fill="#e67e22" font-weight="bold">1.2</tspan> mV</text>
    <text x="510" y="560">MU: <tspan fill="#e67e22">45</tspan></text>
    <text x="510" y="575">Exc: <tspan fill="#e67e22">30</tspan>%</text>
  </g>
  
  <rect x="360" y="615" width="45" height="22" rx="4" fill="#27ae60"/>
  <text x="382" y="630" font-family="Arial, sans-serif" font-size="7" fill="white" text-anchor="middle">▶</text>
  <rect x="410" y="615" width="45" height="22" rx="4" fill="#f39c12"/>
  <text x="432" y="630" font-family="Arial, sans-serif" font-size="7" fill="white" text-anchor="middle">⏸</text>
  <rect x="460" y="615" width="45" height="22" rx="4" fill="#e74c3c"/>
  <text x="482" y="630" font-family="Arial, sans-serif" font-size="7" fill="white" text-anchor="middle">⏹</text>
  <rect x="510" y="615" width="45" height="22" rx="4" fill="#3498db"/>
  <text x="532" y="630" font-family="Arial, sans-serif" font-size="7" fill="white" text-anchor="middle">⚙</text>
  
  <!-- DAC output toggle -->
  <rect x="360" y="645" width="90" height="22" rx="4" fill="#9b59b6"/>
  <text x="405" y="660" font-family="Arial, sans-serif" font-size="7" fill="white" text-anchor="middle">DAC: RAW/ENV</text>
  
  <!-- PÁGINA 9: WAVEFORM_PPG -->
  <rect x="590" y="490" width="220" height="200" rx="8" fill="#1a1a2e" stroke="#3498db" stroke-width="2"/>
  <text x="700" y="515" font-family="Arial, sans-serif" font-size="11" fill="#3498db" text-anchor="middle" font-weight="bold">Página 9: WAVEFORM_PPG</text>
  
  <rect x="600" y="525" width="140" height="80" rx="3" fill="#0d1117" stroke="#3498db" stroke-width="1"/>
  <!-- PPG wave pattern -->
  <polyline points="605,580 620,580 635,575 650,560 660,545 665,550 675,565 690,575 705,580 720,580 730,575" 
        fill="none" stroke="#e74c3c" stroke-width="1.5"/>
  
  <g font-family="Arial, sans-serif" font-size="8" fill="#7f8c8d">
    <text x="750" y="545">HR: <tspan fill="#3498db" font-weight="bold">75</tspan> bpm</text>
    <text x="750" y="560">SpO2: <tspan fill="#3498db">98</tspan>%</text>
    <text x="750" y="575">PI: <tspan fill="#3498db">3.5</tspan>%</text>
  </g>
  
  <rect x="600" y="615" width="45" height="22" rx="4" fill="#27ae60"/>
  <text x="622" y="630" font-family="Arial, sans-serif" font-size="7" fill="white" text-anchor="middle">▶</text>
  <rect x="650" y="615" width="45" height="22" rx="4" fill="#f39c12"/>
  <text x="672" y="630" font-family="Arial, sans-serif" font-size="7" fill="white" text-anchor="middle">⏸</text>
  <rect x="700" y="615" width="45" height="22" rx="4" fill="#e74c3c"/>
  <text x="722" y="630" font-family="Arial, sans-serif" font-size="7" fill="white" text-anchor="middle">⏹</text>
  <rect x="750" y="615" width="45" height="22" rx="4" fill="#3498db"/>
  <text x="772" y="630" font-family="Arial, sans-serif" font-size="7" fill="white" text-anchor="middle">⚙</text>
  
  <!-- ══════════════════════════════════════════════════════════════════════ -->
  <!-- PÁGINAS 6,8,10: PARÁMETROS (POPUP) -->
  <!-- ══════════════════════════════════════════════════════════════════════ -->
  
  <!-- Flecha waveform → parámetros -->
  <line x1="300" y1="632" x2="880" y2="632" stroke="#3498db" stroke-width="1" stroke-dasharray="4,2"/>
  <line x1="880" y1="632" x2="880" y2="500" stroke="#3498db" stroke-width="1" stroke-dasharray="4,2"/>
  <line x1="880" y1="500" x2="920" y2="500" stroke="#3498db" stroke-width="1.5" marker-end="url(#arrowBlue)"/>
  
  <!-- Popup Parámetros (genérico) -->
  <rect x="830" y="270" width="320" height="240" rx="10" fill="#fff" stroke="#9b59b6" stroke-width="2"/>
  <rect x="830" y="270" width="320" height="30" rx="10" fill="#9b59b6"/>
  <text x="990" y="290" font-family="Arial, sans-serif" font-size="11" fill="white" text-anchor="middle" font-weight="bold">Páginas 6/8/10: PARAMETROS</text>
  
  <text x="990" y="325" font-family="Arial, sans-serif" font-size="10" fill="#333" text-anchor="middle" font-weight="bold">Sliders Ajustables</text>
  
  <!-- ECG Sliders -->
  <g font-family="Arial, sans-serif" font-size="8" fill="#333">
    <text x="850" y="350" fill="#2e7d32" font-weight="bold">ECG:</text>
    <text x="850" y="365">• SLIDER_ECG_HR (40-200 bpm)</text>
    <text x="850" y="378">• SLIDER_ECG_AMP (50-200%)</text>
    <text x="850" y="391">• SLIDER_ECG_NOISE (0-50%)</text>
    <text x="850" y="404">• SLIDER_ECG_HRV (0-100%)</text>
    
    <text x="1000" y="350" fill="#e65100" font-weight="bold">EMG:</text>
    <text x="1000" y="365">• SLIDER_EMG_EXC (0-100%)</text>
    <text x="1000" y="378">• SLIDER_EMG_AMP (50-200%)</text>
    <text x="1000" y="391">• SLIDER_EMG_NOISE (0-50%)</text>
    
    <text x="850" y="425" fill="#1565c0" font-weight="bold">PPG:</text>
    <text x="850" y="440">• SLIDER_PPG_HR (40-200 bpm)</text>
    <text x="850" y="453">• SLIDER_PPG_PI (0.5-20%)</text>
    <text x="850" y="466">• SLIDER_PPG_NOISE (0-50%)</text>
    <text x="850" y="479">• SLIDER_PPG_AMP (50-200%)</text>
  </g>
  
  <!-- Botones popup -->
  <rect x="850" y="485" width="80" height="20" rx="4" fill="#27ae60"/>
  <text x="890" y="498" font-family="Arial, sans-serif" font-size="8" fill="white" text-anchor="middle">Aplicar</text>
  <rect x="940" y="485" width="80" height="20" rx="4" fill="#e74c3c"/>
  <text x="980" y="498" font-family="Arial, sans-serif" font-size="8" fill="white" text-anchor="middle">Cancelar</text>
  <rect x="1030" y="485" width="80" height="20" rx="4" fill="#f39c12"/>
  <text x="1070" y="498" font-family="Arial, sans-serif" font-size="8" fill="white" text-anchor="middle">Reset</text>
  
  <!-- ══════════════════════════════════════════════════════════════════════ -->
  <!-- ARQUITECTURA CONTROLADOR -->
  <!-- ══════════════════════════════════════════════════════════════════════ -->
  
  <rect x="50" y="720" width="1100" height="160" rx="8" fill="#f5f5f5" stroke="#555" stroke-width="1.5"/>
  <text x="600" y="745" font-family="Arial, sans-serif" font-size="12" fill="#333" text-anchor="middle" font-weight="bold">Arquitectura del Controlador Nextion (Patrón Evento-Callback)</text>
  
  <!-- Flujo del controlador -->
  <rect x="70" y="760" width="140" height="50" rx="5" fill="#e3f2fd" stroke="#1976d2" stroke-width="1"/>
  <text x="140" y="782" font-family="Arial, sans-serif" font-size="9" fill="#333" text-anchor="middle" font-weight="bold">UART2 RX</text>
  <text x="140" y="797" font-family="Arial, sans-serif" font-size="8" fill="#666" text-anchor="middle">0x65 page comp event</text>
  
  <line x1="210" y1="785" x2="250" y2="785" stroke="#555" stroke-width="1.5" marker-end="url(#arrow)"/>
  
  <rect x="260" y="760" width="140" height="50" rx="5" fill="#fff3e0" stroke="#e65100" stroke-width="1"/>
  <text x="330" y="782" font-family="Arial, sans-serif" font-size="9" fill="#333" text-anchor="middle" font-weight="bold">parseEvent()</text>
  <text x="330" y="797" font-family="Arial, sans-serif" font-size="8" fill="#666" text-anchor="middle">Decodifica touch</text>
  
  <line x1="400" y1="785" x2="440" y2="785" stroke="#555" stroke-width="1.5" marker-end="url(#arrow)"/>
  
  <rect x="450" y="760" width="140" height="50" rx="5" fill="#f3e5f5" stroke="#7b1fa2" stroke-width="1"/>
  <text x="520" y="782" font-family="Arial, sans-serif" font-size="9" fill="#333" text-anchor="middle" font-weight="bold">UIEvent enum</text>
  <text x="520" y="797" font-family="Arial, sans-serif" font-size="8" fill="#666" text-anchor="middle">BUTTON_*, SLIDER_*</text>
  
  <line x1="590" y1="785" x2="630" y2="785" stroke="#555" stroke-width="1.5" marker-end="url(#arrow)"/>
  
  <rect x="640" y="760" width="140" height="50" rx="5" fill="#e8f5e9" stroke="#2e7d32" stroke-width="1"/>
  <text x="710" y="782" font-family="Arial, sans-serif" font-size="9" fill="#333" text-anchor="middle" font-weight="bold">eventCallback()</text>
  <text x="710" y="797" font-family="Arial, sans-serif" font-size="8" fill="#666" text-anchor="middle">→ main.cpp switch</text>
  
  <line x1="780" y1="785" x2="820" y2="785" stroke="#555" stroke-width="1.5" marker-end="url(#arrow)"/>
  
  <rect x="830" y="760" width="140" height="50" rx="5" fill="#ffebee" stroke="#c62828" stroke-width="1"/>
  <text x="900" y="782" font-family="Arial, sans-serif" font-size="9" fill="#333" text-anchor="middle" font-weight="bold">SignalEngine</text>
  <text x="900" y="797" font-family="Arial, sans-serif" font-size="8" fill="#666" text-anchor="middle">start/stop/params</text>
  
  <line x1="970" y1="785" x2="1010" y2="785" stroke="#555" stroke-width="1.5" marker-end="url(#arrow)"/>
  
  <rect x="1020" y="760" width="110" height="50" rx="5" fill="#e3f2fd" stroke="#1976d2" stroke-width="1"/>
  <text x="1075" y="782" font-family="Arial, sans-serif" font-size="9" fill="#333" text-anchor="middle" font-weight="bold">UART2 TX</text>
  <text x="1075" y="797" font-family="Arial, sans-serif" font-size="8" fill="#666" text-anchor="middle">add/setText</text>
  
  <!-- Leyenda inferior -->
  <text x="70" y="840" font-family="Arial, sans-serif" font-size="9" fill="#666">
    <tspan font-weight="bold">Protocolo Nextion:</tspan> Touch Event = 0x65 + PageID + ComponentID + TouchEvent + 0xFF×3
  </text>
  <text x="70" y="855" font-family="Arial, sans-serif" font-size="9" fill="#666">
    <tspan font-weight="bold">Callbacks registrados:</tspan> setEventCallback(handleNextionEvent) en setup() → switch(event) en main.cpp
  </text>
  <text x="70" y="870" font-family="Arial, sans-serif" font-size="9" fill="#666">
    <tspan font-weight="bold">Frecuencias:</tspan> Waveform @ 200/100 Hz | Métricas texto @ 4 Hz | Touch polling @ loop()
  </text>
  
</svg>
