<?xml version="1.0" encoding="UTF-8"?>
<svg xmlns="http://www.w3.org/2000/svg" viewBox="0 0 1100 800" width="1100" height="800">
  <defs>
    <marker id="arrow" markerWidth="8" markerHeight="6" refX="7" refY="3" orient="auto">
      <polygon points="0 0, 8 3, 0 6" fill="#555"/>
    </marker>
    <marker id="arrowBlue" markerWidth="8" markerHeight="6" refX="7" refY="3" orient="auto">
      <polygon points="0 0, 8 3, 0 6" fill="#2980b9"/>
    </marker>
  </defs>
  
  <!-- Fondo -->
  <rect width="1100" height="800" fill="#ffffff"/>
  
  <!-- Título -->
  <text x="550" y="28" font-family="Arial, sans-serif" font-size="16" font-weight="bold" fill="#333" text-anchor="middle" font-style="italic">
    Flujo de Procesamiento de Señal Digital hacia Visualización Nextion
  </text>
  
  <!-- ══════════════════════════════════════════════════════════════════════ -->
  <!-- FILA 1: CADENA DE GENERACIÓN Y BIFURCACIÓN -->
  <!-- ══════════════════════════════════════════════════════════════════════ -->
  
  <text x="25" y="90" font-family="Arial, sans-serif" font-size="10" fill="#1565C0" font-style="italic" writing-mode="tb">Generación de Señal</text>
  
  <rect x="50" y="50" width="1000" height="100" rx="8" fill="none" stroke="#2196F3" stroke-width="2" stroke-dasharray="6,3"/>
  
  <!-- Modelo -->
  <rect x="70" y="70" width="130" height="60" rx="4" fill="#fff" stroke="#555" stroke-width="1.2"/>
  <text x="135" y="92" font-family="Arial, sans-serif" font-size="9" fill="#333" text-anchor="middle" font-weight="bold">Modelo Matemático</text>
  <text x="135" y="107" font-family="Arial, sans-serif" font-size="8" fill="#666" text-anchor="middle">ECG: 300 Hz</text>
  <text x="135" y="118" font-family="Arial, sans-serif" font-size="8" fill="#666" text-anchor="middle">EMG: 1000 Hz | PPG: 100 Hz</text>
  
  <line x1="200" y1="100" x2="230" y2="100" stroke="#555" stroke-width="1" marker-end="url(#arrow)"/>
  
  <!-- Interpolación -->
  <rect x="235" y="70" width="120" height="60" rx="4" fill="#fff" stroke="#555" stroke-width="1.2"/>
  <text x="295" y="92" font-family="Arial, sans-serif" font-size="9" fill="#333" text-anchor="middle" font-weight="bold">Interpolación</text>
  <text x="295" y="107" font-family="Arial, sans-serif" font-size="8" fill="#666" text-anchor="middle">Lineal a 2000 Hz</text>
  <text x="295" y="118" font-family="Arial, sans-serif" font-size="8" fill="#666" text-anchor="middle">y = y₀ + (y₁-y₀)·t</text>
  
  <line x1="355" y1="100" x2="385" y2="100" stroke="#555" stroke-width="1" marker-end="url(#arrow)"/>
  
  <!-- Buffer -->
  <rect x="390" y="70" width="110" height="60" rx="4" fill="#e8f5e9" stroke="#388e3c" stroke-width="1.2"/>
  <text x="445" y="92" font-family="Arial, sans-serif" font-size="9" fill="#333" text-anchor="middle" font-weight="bold">Buffer Circular</text>
  <text x="445" y="107" font-family="Arial, sans-serif" font-size="8" fill="#666" text-anchor="middle">2048 muestras</text>
  <text x="445" y="118" font-family="Arial, sans-serif" font-size="8" fill="#666" text-anchor="middle">@ 2000 Hz</text>
  
  <line x1="500" y1="100" x2="530" y2="100" stroke="#555" stroke-width="1" marker-end="url(#arrow)"/>
  
  <!-- Timer ISR -->
  <rect x="535" y="70" width="100" height="60" rx="4" fill="#ffebee" stroke="#c62828" stroke-width="1.2"/>
  <text x="585" y="92" font-family="Arial, sans-serif" font-size="9" fill="#333" text-anchor="middle" font-weight="bold">Timer ISR</text>
  <text x="585" y="107" font-family="Arial, sans-serif" font-size="8" fill="#666" text-anchor="middle">2 kHz (500 µs)</text>
  <text x="585" y="118" font-family="Arial, sans-serif" font-size="8" fill="#666" text-anchor="middle">sampleCount++</text>
  
  <!-- BIFURCACIÓN -->
  <line x1="635" y1="100" x2="680" y2="100" stroke="#555" stroke-width="1.5"/>
  <circle cx="680" cy="100" r="5" fill="#555"/>
  
  <!-- Rama DAC (arriba) -->
  <line x1="680" y1="100" x2="680" y2="75" stroke="#555" stroke-width="1.5"/>
  <line x1="680" y1="75" x2="750" y2="75" stroke="#555" stroke-width="1" marker-end="url(#arrow)"/>
  
  <rect x="755" y="55" width="130" height="40" rx="4" fill="#c8e6c9" stroke="#2e7d32" stroke-width="1.5"/>
  <text x="820" y="72" font-family="Arial, sans-serif" font-size="9" fill="#333" text-anchor="middle" font-weight="bold">DAC GPIO25</text>
  <text x="820" y="85" font-family="Arial, sans-serif" font-size="8" fill="#666" text-anchor="middle">2000 Hz → Analógico</text>
  
  <line x1="885" y1="75" x2="920" y2="75" stroke="#555" stroke-width="1" marker-end="url(#arrow)"/>
  <text x="970" y="78" font-family="Arial, sans-serif" font-size="8" fill="#666" text-anchor="middle">→ BNC</text>
  
  <!-- Rama Nextion (abajo) -->
  <line x1="680" y1="100" x2="680" y2="125" stroke="#555" stroke-width="1.5"/>
  <line x1="680" y1="125" x2="750" y2="125" stroke="#555" stroke-width="1" marker-end="url(#arrow)"/>
  
  <rect x="755" y="105" width="130" height="40" rx="4" fill="#e3f2fd" stroke="#1976d2" stroke-width="1.5"/>
  <text x="820" y="122" font-family="Arial, sans-serif" font-size="9" fill="#333" text-anchor="middle" font-weight="bold">Decimación</text>
  <text x="820" y="135" font-family="Arial, sans-serif" font-size="8" fill="#666" text-anchor="middle">→ Nextion UART</text>
  
  <!-- ══════════════════════════════════════════════════════════════════════ -->
  <!-- FILA 2: DECIMACIÓN DETALLADA -->
  <!-- ══════════════════════════════════════════════════════════════════════ -->
  
  <text x="25" y="230" font-family="Arial, sans-serif" font-size="10" fill="#9C27B0" font-style="italic" writing-mode="tb">Decimación Selectiva</text>
  
  <rect x="50" y="170" width="1000" height="130" rx="8" fill="none" stroke="#9C27B0" stroke-width="2" stroke-dasharray="6,3"/>
  
  <!-- Condición de decimación -->
  <rect x="70" y="190" width="200" height="90" rx="4" fill="#f3e5f5" stroke="#7b1fa2" stroke-width="1.2"/>
  <text x="170" y="210" font-family="Arial, sans-serif" font-size="9" fill="#333" text-anchor="middle" font-weight="bold">Condición de Envío</text>
  <text x="170" y="230" font-family="Courier New" font-size="9" fill="#6a1b9a" text-anchor="middle">if (sampleCount % ratio == 0)</text>
  <text x="170" y="250" font-family="Arial, sans-serif" font-size="8" fill="#666" text-anchor="middle">Enviar punto a waveform</text>
  <text x="170" y="268" font-family="Arial, sans-serif" font-size="8" fill="#666" text-anchor="middle">ratio = Fs_timer / Fds</text>
  
  <line x1="270" y1="235" x2="310" y2="235" stroke="#555" stroke-width="1" marker-end="url(#arrow)"/>
  
  <!-- Tabla de ratios -->
  <rect x="320" y="190" width="350" height="90" rx="4" fill="#fff" stroke="#555" stroke-width="1"/>
  
  <!-- Header tabla -->
  <rect x="320" y="190" width="350" height="22" fill="#eeeeee"/>
  <text x="370" y="205" font-family="Arial, sans-serif" font-size="8" fill="#333" text-anchor="middle" font-weight="bold">Señal</text>
  <text x="440" y="205" font-family="Arial, sans-serif" font-size="8" fill="#333" text-anchor="middle" font-weight="bold">Fs_timer</text>
  <text x="510" y="205" font-family="Arial, sans-serif" font-size="8" fill="#333" text-anchor="middle" font-weight="bold">Fds</text>
  <text x="580" y="205" font-family="Arial, sans-serif" font-size="8" fill="#333" text-anchor="middle" font-weight="bold">Ratio</text>
  <text x="635" y="205" font-family="Arial, sans-serif" font-size="8" fill="#333" text-anchor="middle" font-weight="bold">Δt/px</text>
  
  <!-- ECG -->
  <text x="370" y="228" font-family="Arial, sans-serif" font-size="9" fill="#2e7d32" text-anchor="middle" font-weight="bold">ECG</text>
  <text x="440" y="228" font-family="Arial, sans-serif" font-size="9" fill="#333" text-anchor="middle">2000 Hz</text>
  <text x="510" y="228" font-family="Arial, sans-serif" font-size="9" fill="#333" text-anchor="middle">200 Hz</text>
  <text x="580" y="228" font-family="Arial, sans-serif" font-size="9" fill="#7b1fa2" text-anchor="middle" font-weight="bold">10:1</text>
  <text x="635" y="228" font-family="Arial, sans-serif" font-size="9" fill="#333" text-anchor="middle">5 ms</text>
  
  <!-- EMG -->
  <text x="370" y="248" font-family="Arial, sans-serif" font-size="9" fill="#e65100" text-anchor="middle" font-weight="bold">EMG</text>
  <text x="440" y="248" font-family="Arial, sans-serif" font-size="9" fill="#333" text-anchor="middle">2000 Hz</text>
  <text x="510" y="248" font-family="Arial, sans-serif" font-size="9" fill="#333" text-anchor="middle">100 Hz</text>
  <text x="580" y="248" font-family="Arial, sans-serif" font-size="9" fill="#7b1fa2" text-anchor="middle" font-weight="bold">20:1</text>
  <text x="635" y="248" font-family="Arial, sans-serif" font-size="9" fill="#333" text-anchor="middle">10 ms</text>
  
  <!-- PPG -->
  <text x="370" y="268" font-family="Arial, sans-serif" font-size="9" fill="#1565c0" text-anchor="middle" font-weight="bold">PPG</text>
  <text x="440" y="268" font-family="Arial, sans-serif" font-size="9" fill="#333" text-anchor="middle">2000 Hz</text>
  <text x="510" y="268" font-family="Arial, sans-serif" font-size="9" fill="#333" text-anchor="middle">100 Hz</text>
  <text x="580" y="268" font-family="Arial, sans-serif" font-size="9" fill="#7b1fa2" text-anchor="middle" font-weight="bold">20:1</text>
  <text x="635" y="268" font-family="Arial, sans-serif" font-size="9" fill="#333" text-anchor="middle">10 ms</text>
  
  <line x1="670" y1="235" x2="710" y2="235" stroke="#555" stroke-width="1" marker-end="url(#arrow)"/>
  
  <!-- Justificación -->
  <rect x="720" y="190" width="310" height="90" rx="4" fill="#fff8e1" stroke="#ff8f00" stroke-width="1"/>
  <text x="875" y="210" font-family="Arial, sans-serif" font-size="9" fill="#333" text-anchor="middle" font-weight="bold">Justificación de Fds</text>
  <text x="740" y="230" font-family="Arial, sans-serif" font-size="8" fill="#666">• ECG 200 Hz: QRS dura 80-120 ms → Δt=5 ms captura pico</text>
  <text x="740" y="248" font-family="Arial, sans-serif" font-size="8" fill="#666">• EMG 100 Hz: señal estocástica, morfología individual irrelevante</text>
  <text x="740" y="266" font-family="Arial, sans-serif" font-size="8" fill="#666">• PPG 100 Hz: BW real ~5 Hz, 100 Hz es 20× sobremuestreo</text>
  
  <!-- ══════════════════════════════════════════════════════════════════════ -->
  <!-- FILA 3: ESCALADO DAC -->
  <!-- ══════════════════════════════════════════════════════════════════════ -->
  
  <text x="25" y="370" font-family="Arial, sans-serif" font-size="10" fill="#E65100" font-style="italic" writing-mode="tb">Escalado a DAC</text>
  
  <rect x="50" y="320" width="1000" height="110" rx="8" fill="none" stroke="#E65100" stroke-width="2" stroke-dasharray="6,3"/>
  
  <!-- Fórmula general -->
  <rect x="70" y="340" width="180" height="70" rx="4" fill="#fff3e0" stroke="#e65100" stroke-width="1.2"/>
  <text x="160" y="360" font-family="Arial, sans-serif" font-size="9" fill="#333" text-anchor="middle" font-weight="bold">Transformación Lineal</text>
  <text x="160" y="385" font-family="Arial, sans-serif" font-size="10" fill="#bf360c" text-anchor="middle">DAC = (V + offset) × gain</text>
  <text x="160" y="402" font-family="Arial, sans-serif" font-size="8" fill="#666" text-anchor="middle">Salida: 0-255 (8 bits)</text>
  
  <line x1="250" y1="375" x2="290" y2="375" stroke="#555" stroke-width="1" marker-end="url(#arrow)"/>
  
  <!-- ECG escalado -->
  <rect x="300" y="340" width="200" height="70" rx="4" fill="#e8f5e9" stroke="#2e7d32" stroke-width="1"/>
  <text x="400" y="358" font-family="Arial, sans-serif" font-size="9" fill="#2e7d32" text-anchor="middle" font-weight="bold">ECG [-0.5, +1.5] mV</text>
  <text x="400" y="378" font-family="Courier New" font-size="9" fill="#333" text-anchor="middle">DAC = (V + 0.5) × 127.5</text>
  <text x="400" y="398" font-family="Arial, sans-serif" font-size="8" fill="#666" text-anchor="middle">0 mV → 64 | +1 mV → 191</text>
  
  <!-- EMG escalado -->
  <rect x="520" y="340" width="200" height="70" rx="4" fill="#fff3e0" stroke="#e65100" stroke-width="1"/>
  <text x="620" y="358" font-family="Arial, sans-serif" font-size="9" fill="#e65100" text-anchor="middle" font-weight="bold">EMG [-5, +5] mV</text>
  <text x="620" y="378" font-family="Courier New" font-size="9" fill="#333" text-anchor="middle">DAC = (V + 5.0) × 25.5</text>
  <text x="620" y="398" font-family="Arial, sans-serif" font-size="8" fill="#666" text-anchor="middle">0 mV → 128 | +5 mV → 255</text>
  
  <!-- PPG escalado -->
  <rect x="740" y="340" width="200" height="70" rx="4" fill="#e3f2fd" stroke="#1565c0" stroke-width="1"/>
  <text x="840" y="358" font-family="Arial, sans-serif" font-size="9" fill="#1565c0" text-anchor="middle" font-weight="bold">PPG [0, 150] mV AC</text>
  <text x="840" y="378" font-family="Courier New" font-size="9" fill="#333" text-anchor="middle">DAC = V_AC × 1.7</text>
  <text x="840" y="398" font-family="Arial, sans-serif" font-size="8" fill="#666" text-anchor="middle">0 mV → 0 | 150 mV → 255</text>
  
  <!-- Clamping -->
  <rect x="960" y="340" width="70" height="70" rx="4" fill="#ffebee" stroke="#c62828" stroke-width="1"/>
  <text x="995" y="365" font-family="Arial, sans-serif" font-size="8" fill="#c62828" text-anchor="middle" font-weight="bold">Clamp</text>
  <text x="995" y="385" font-family="Arial, sans-serif" font-size="8" fill="#666" text-anchor="middle">[0,255]</text>
  <text x="995" y="400" font-family="Arial, sans-serif" font-size="7" fill="#666" text-anchor="middle">Protección</text>
  
  <!-- ══════════════════════════════════════════════════════════════════════ -->
  <!-- FILA 4: COMUNICACIÓN UART NEXTION -->
  <!-- ══════════════════════════════════════════════════════════════════════ -->
  
  <text x="25" y="510" font-family="Arial, sans-serif" font-size="10" fill="#1565C0" font-style="italic" writing-mode="tb">Protocolo UART Nextion</text>
  
  <rect x="50" y="450" width="1000" height="100" rx="8" fill="none" stroke="#1565C0" stroke-width="2" stroke-dasharray="6,3"/>
  
  <!-- Comando waveform -->
  <rect x="70" y="470" width="250" height="60" rx="4" fill="#e3f2fd" stroke="#1976d2" stroke-width="1.2"/>
  <text x="195" y="490" font-family="Arial, sans-serif" font-size="9" fill="#333" text-anchor="middle" font-weight="bold">Comando Waveform</text>
  <text x="195" y="510" font-family="Courier New" font-size="10" fill="#0d47a1" text-anchor="middle">add &lt;waveform_id&gt;,&lt;ch&gt;,&lt;val&gt;</text>
  <text x="195" y="522" font-family="Arial, sans-serif" font-size="7" fill="#666" text-anchor="middle">Terminador: 0xFF 0xFF 0xFF (3 bytes)</text>
  
  <line x1="320" y1="500" x2="360" y2="500" stroke="#555" stroke-width="1" marker-end="url(#arrow)"/>
  
  <!-- Ancho de banda -->
  <rect x="370" y="470" width="280" height="60" rx="4" fill="#fff" stroke="#555" stroke-width="1"/>
  <text x="510" y="490" font-family="Arial, sans-serif" font-size="9" fill="#333" text-anchor="middle" font-weight="bold">Análisis de Ancho de Banda UART</text>
  <text x="510" y="508" font-family="Arial, sans-serif" font-size="8" fill="#666" text-anchor="middle">~15 bytes/comando × 10 bits/byte = 150 bits</text>
  <text x="510" y="522" font-family="Arial, sans-serif" font-size="8" fill="#666" text-anchor="middle">Max: 115200/150 ≈ 768 puntos/s → Límite práctico ~300 pts/s</text>
  
  <line x1="650" y1="500" x2="690" y2="500" stroke="#555" stroke-width="1" marker-end="url(#arrow)"/>
  
  <!-- Nextion Display -->
  <rect x="700" y="460" width="330" height="80" rx="4" fill="#1a1a2e" stroke="#3498db" stroke-width="2"/>
  <text x="865" y="485" font-family="Arial, sans-serif" font-size="10" fill="#3498db" text-anchor="middle" font-weight="bold">Nextion NX8048T070</text>
  <text x="865" y="502" font-family="Arial, sans-serif" font-size="9" fill="#7f8c8d" text-anchor="middle">Waveform: 700×380 px | Buffer: 700 puntos</text>
  <text x="865" y="518" font-family="Arial, sans-serif" font-size="9" fill="#2ecc71" text-anchor="middle">Procesador STM32F030 renderiza localmente</text>
  <text x="865" y="532" font-family="Arial, sans-serif" font-size="8" fill="#7f8c8d" text-anchor="middle">ESP32 solo envía datos, NO renderiza</text>
  
  <!-- ══════════════════════════════════════════════════════════════════════ -->
  <!-- FILA 5: GRID FUNCIONAL -->
  <!-- ══════════════════════════════════════════════════════════════════════ -->
  
  <text x="25" y="630" font-family="Arial, sans-serif" font-size="10" fill="#2E7D32" font-style="italic" writing-mode="tb">Grid Clínico Funcional</text>
  
  <rect x="50" y="570" width="1000" height="220" rx="8" fill="none" stroke="#2E7D32" stroke-width="2" stroke-dasharray="6,3"/>
  
  <!-- Área de waveform visual -->
  <rect x="70" y="590" width="350" height="180" rx="4" fill="#1a1a2e" stroke="#3498db" stroke-width="1.5"/>
  
  <!-- Grid simulado -->
  <g stroke="#2d4a3e" stroke-width="0.5" opacity="0.6">
    <line x1="105" y1="590" x2="105" y2="770"/>
    <line x1="140" y1="590" x2="140" y2="770"/>
    <line x1="175" y1="590" x2="175" y2="770"/>
    <line x1="210" y1="590" x2="210" y2="770"/>
    <line x1="245" y1="590" x2="245" y2="770"/>
    <line x1="280" y1="590" x2="280" y2="770"/>
    <line x1="315" y1="590" x2="315" y2="770"/>
    <line x1="350" y1="590" x2="350" y2="770"/>
    <line x1="385" y1="590" x2="385" y2="770"/>
    <line x1="70" y1="608" x2="420" y2="608"/>
    <line x1="70" y1="626" x2="420" y2="626"/>
    <line x1="70" y1="644" x2="420" y2="644"/>
    <line x1="70" y1="662" x2="420" y2="662"/>
    <line x1="70" y1="680" x2="420" y2="680"/>
    <line x1="70" y1="698" x2="420" y2="698"/>
    <line x1="70" y1="716" x2="420" y2="716"/>
    <line x1="70" y1="734" x2="420" y2="734"/>
    <line x1="70" y1="752" x2="420" y2="752"/>
  </g>
  
  <!-- Señal ECG simulada -->
  <polyline points="70,680 100,680 110,678 120,680 140,680 145,675 150,690 155,630 160,730 165,670 170,680 200,680 230,680 240,678 250,680 270,680 275,675 280,690 285,630 290,730 295,670 300,680 330,680 360,680 370,678 380,680 400,680 405,675 410,690" 
        fill="none" stroke="#2ecc71" stroke-width="2"/>
  
  <text x="80" y="605" font-family="Arial, sans-serif" font-size="9" fill="#2ecc71">ECG Lead II</text>
  <text x="80" y="765" font-family="Arial, sans-serif" font-size="8" fill="#7f8c8d">700 px | Sin interpolación | ECG: 350 ms/div, EMG/PPG: 700 ms/div</text>
  
  <!-- Dimensiones anotadas -->
  <line x1="70" y1="775" x2="420" y2="775" stroke="#666" stroke-width="1"/>
  <text x="245" y="788" font-family="Arial, sans-serif" font-size="8" fill="#666" text-anchor="middle">700 píxeles (ancho waveform)</text>
  
  <!-- Tabla de grid -->
  <rect x="450" y="590" width="580" height="180" rx="4" fill="#fff" stroke="#555" stroke-width="1"/>
  
  <!-- Header tabla grid -->
  <rect x="450" y="590" width="580" height="25" fill="#e8f5e9"/>
  <text x="740" y="607" font-family="Arial, sans-serif" font-size="10" fill="#2e7d32" text-anchor="middle" font-weight="bold">Configuración de Grid por Tipo de Señal</text>
  
  <!-- Subheaders -->
  <rect x="450" y="615" width="580" height="20" fill="#f5f5f5"/>
  <text x="490" y="628" font-family="Arial, sans-serif" font-size="8" fill="#333" text-anchor="middle" font-weight="bold">Señal</text>
  <text x="560" y="628" font-family="Arial, sans-serif" font-size="8" fill="#333" text-anchor="middle" font-weight="bold">Fds</text>
  <text x="620" y="628" font-family="Arial, sans-serif" font-size="8" fill="#333" text-anchor="middle" font-weight="bold">Δt/px</text>
  <text x="690" y="628" font-family="Arial, sans-serif" font-size="8" fill="#333" text-anchor="middle" font-weight="bold">T_visible</text>
  <text x="760" y="628" font-family="Arial, sans-serif" font-size="8" fill="#333" text-anchor="middle" font-weight="bold">ms/div</text>
  <text x="830" y="628" font-family="Arial, sans-serif" font-size="8" fill="#333" text-anchor="middle" font-weight="bold">Rango mV</text>
  <text x="910" y="628" font-family="Arial, sans-serif" font-size="8" fill="#333" text-anchor="middle" font-weight="bold">mV/div</text>
  <text x="980" y="628" font-family="Arial, sans-serif" font-size="8" fill="#333" text-anchor="middle" font-weight="bold">Div</text>
  
  <!-- Líneas separadoras verticales -->
  <line x1="525" y1="615" x2="525" y2="770" stroke="#ddd" stroke-width="1"/>
  <line x1="590" y1="615" x2="590" y2="770" stroke="#ddd" stroke-width="1"/>
  <line x1="655" y1="615" x2="655" y2="770" stroke="#ddd" stroke-width="1"/>
  <line x1="725" y1="615" x2="725" y2="770" stroke="#ddd" stroke-width="1"/>
  <line x1="795" y1="615" x2="795" y2="770" stroke="#ddd" stroke-width="1"/>
  <line x1="865" y1="615" x2="865" y2="770" stroke="#ddd" stroke-width="1"/>
  <line x1="950" y1="615" x2="950" y2="770" stroke="#ddd" stroke-width="1"/>
  
  <!-- ECG row -->
  <rect x="455" y="640" width="60" height="35" rx="3" fill="#2ecc71"/>
  <text x="485" y="662" font-family="Arial, sans-serif" font-size="10" fill="white" text-anchor="middle" font-weight="bold">ECG</text>
  <text x="560" y="662" font-family="Arial, sans-serif" font-size="9" fill="#333" text-anchor="middle">200</text>
  <text x="620" y="662" font-family="Arial, sans-serif" font-size="9" fill="#333" text-anchor="middle">5 ms</text>
  <text x="690" y="662" font-family="Arial, sans-serif" font-size="9" fill="#333" text-anchor="middle" font-weight="bold">3.5 s</text>
  <text x="760" y="662" font-family="Arial, sans-serif" font-size="9" fill="#7b1fa2" text-anchor="middle" font-weight="bold">350</text>
  <text x="830" y="662" font-family="Arial, sans-serif" font-size="9" fill="#333" text-anchor="middle">-0.5 a +1.5</text>
  <text x="910" y="662" font-family="Arial, sans-serif" font-size="9" fill="#7b1fa2" text-anchor="middle" font-weight="bold">0.2</text>
  <text x="980" y="662" font-family="Arial, sans-serif" font-size="9" fill="#333" text-anchor="middle">10×10</text>
  
  <!-- EMG row -->
  <rect x="455" y="685" width="60" height="35" rx="3" fill="#e67e22"/>
  <text x="485" y="707" font-family="Arial, sans-serif" font-size="10" fill="white" text-anchor="middle" font-weight="bold">EMG</text>
  <text x="560" y="707" font-family="Arial, sans-serif" font-size="9" fill="#333" text-anchor="middle">100</text>
  <text x="620" y="707" font-family="Arial, sans-serif" font-size="9" fill="#333" text-anchor="middle">10 ms</text>
  <text x="690" y="707" font-family="Arial, sans-serif" font-size="9" fill="#333" text-anchor="middle" font-weight="bold">7.0 s</text>
  <text x="760" y="707" font-family="Arial, sans-serif" font-size="9" fill="#7b1fa2" text-anchor="middle" font-weight="bold">700</text>
  <text x="830" y="707" font-family="Arial, sans-serif" font-size="9" fill="#333" text-anchor="middle">-5 a +5</text>
  <text x="910" y="707" font-family="Arial, sans-serif" font-size="9" fill="#7b1fa2" text-anchor="middle" font-weight="bold">1.0</text>
  <text x="980" y="707" font-family="Arial, sans-serif" font-size="9" fill="#333" text-anchor="middle">10×10</text>
  
  <!-- PPG row -->
  <rect x="455" y="730" width="60" height="35" rx="3" fill="#3498db"/>
  <text x="485" y="752" font-family="Arial, sans-serif" font-size="10" fill="white" text-anchor="middle" font-weight="bold">PPG</text>
  <text x="560" y="752" font-family="Arial, sans-serif" font-size="9" fill="#333" text-anchor="middle">100</text>
  <text x="620" y="752" font-family="Arial, sans-serif" font-size="9" fill="#333" text-anchor="middle">10 ms</text>
  <text x="690" y="752" font-family="Arial, sans-serif" font-size="9" fill="#333" text-anchor="middle" font-weight="bold">7.0 s</text>
  <text x="760" y="752" font-family="Arial, sans-serif" font-size="9" fill="#7b1fa2" text-anchor="middle" font-weight="bold">700</text>
  <text x="830" y="752" font-family="Arial, sans-serif" font-size="9" fill="#333" text-anchor="middle">0 a 150</text>
  <text x="910" y="752" font-family="Arial, sans-serif" font-size="9" fill="#7b1fa2" text-anchor="middle" font-weight="bold">15</text>
  <text x="980" y="752" font-family="Arial, sans-serif" font-size="9" fill="#333" text-anchor="middle">10×10</text>
  
</svg>
